<?xml version="1.0" standalone="no"?><svg version="1.0" xmlns="http://www.w3.org/2000/svg" width="73.000000pt" height="63.000000pt" viewBox="0 0 73.000000 63.000000" preserveAspectRatio="xMidYMid meet"><g transform="translate(0.000000,63.000000) scale(0.100000,-0.100000)" fill="#000000" stroke="none"><path d="M107 604 c-4 -4 -7 -52 -7 -106 0 -98 0 -98 -25 -98 -14 0 -25 -2 -25 -5 0 -15 148 -145 165 -145 19 0 166 120 173 141 2 5 -8 9 -22 9 -25 0 -25 0 -28 103 l-3 102 -111 3 c-60 1 -113 -1 -117 -4z"/><path d="M370 575 l0 -35 135 0 135 0 0 -202 0 -203 -40 45 c-21 25 -39 48 -40 52 0 4 -10 12 -21 19 -19 10 -27 5 -68 -35 -26 -25 -51 -46 -57 -46 -5 0 -34 24 -63 54 l-54 55 -39 -32 c-33 -26 -42 -29 -58 -20 -16 10 -24 5 -64 -37 l-46 -49 0 94 c0 93 0 93 -32 121 l-33 27 -3 -168 c-2 -115 1 -172 9 -181 16 -19 648 -21 667 -2 17 17 17 549 0 566 -8 8 -60 12 -170 12 l-158 0 0 -35z"/><path d="M456 469 c-34 -40 -33 -74 3 -110 57 -56 141 -23 141 56 0 80 -93 115 -144 54z"/></g></svg>